REM MD5 93a2c07c3e0595721dffd514487ceccf
FILE "Tomb Raider II - Starring Lara Croft (USA) (Rev 3).bin" BINARY
  TRACK 01 MODE2/2352
    INDEX 01 00:00:00
  TRACK 02 AUDIO
    INDEX 00 28:04:40
    INDEX 01 28:06:40
  TRACK 03 AUDIO
    INDEX 00 29:31:74
    INDEX 01 29:33:74
  TRACK 04 AUDIO
    INDEX 00 31:28:24
    INDEX 01 31:30:24
  TRACK 05 AUDIO
    INDEX 00 33:46:09
    INDEX 01 33:48:09
  TRACK 06 AUDIO
    INDEX 00 33:55:69
    INDEX 01 33:57:69
  TRACK 07 AUDIO
    INDEX 00 34:04:66
    INDEX 01 34:06:66
  TRACK 08 AUDIO
    INDEX 00 34:11:67
    INDEX 01 34:13:67
  TRACK 09 AUDIO
    INDEX 00 34:18:69
    INDEX 01 34:20:69
  TRACK 10 AUDIO
    INDEX 00 34:26:69
    INDEX 01 34:28:69
  TRACK 11 AUDIO
    INDEX 00 34:40:18
    INDEX 01 34:42:18
  TRACK 12 AUDIO
    INDEX 00 34:58:03
    INDEX 01 35:00:03
  TRACK 13 AUDIO
    INDEX 00 35:08:41
    INDEX 01 35:10:41
  TRACK 14 AUDIO
    INDEX 00 35:19:50
    INDEX 01 35:21:50
  TRACK 15 AUDIO
    INDEX 00 35:26:51
    INDEX 01 35:28:51
  TRACK 16 AUDIO
    INDEX 00 35:33:52
    INDEX 01 35:35:52
  TRACK 17 AUDIO
    INDEX 00 35:40:54
    INDEX 01 35:42:54
  TRACK 18 AUDIO
    INDEX 00 35:51:56
    INDEX 01 35:53:56
  TRACK 19 AUDIO
    INDEX 00 35:58:57
    INDEX 01 36:00:57
  TRACK 20 AUDIO
    INDEX 00 36:05:58
    INDEX 01 36:07:58
  TRACK 21 AUDIO
    INDEX 00 36:12:59
    INDEX 01 36:14:59
  TRACK 22 AUDIO
    INDEX 00 36:19:60
    INDEX 01 36:21:60
  TRACK 23 AUDIO
    INDEX 00 36:26:61
    INDEX 01 36:28:61
  TRACK 24 AUDIO
    INDEX 00 36:45:35
    INDEX 01 36:47:35
  TRACK 25 AUDIO
    INDEX 00 36:56:36
    INDEX 01 36:58:36
  TRACK 26 AUDIO
    INDEX 00 37:03:37
    INDEX 01 37:05:37
  TRACK 27 AUDIO
    INDEX 00 37:57:27
    INDEX 01 37:59:27
  TRACK 28 AUDIO
    INDEX 00 38:59:13
    INDEX 01 39:01:13
  TRACK 29 AUDIO
    INDEX 00 40:22:13
    INDEX 01 40:24:13
  TRACK 30 AUDIO
    INDEX 00 41:30:44
    INDEX 01 41:32:44
  TRACK 31 AUDIO
    INDEX 00 43:06:36
    INDEX 01 43:08:36
  TRACK 32 AUDIO
    INDEX 00 43:16:18
    INDEX 01 43:18:18
  TRACK 33 AUDIO
    INDEX 00 43:22:66
    INDEX 01 43:24:66
  TRACK 34 AUDIO
    INDEX 00 43:41:26
    INDEX 01 43:43:26
  TRACK 35 AUDIO
    INDEX 00 44:37:60
    INDEX 01 44:39:60
  TRACK 36 AUDIO
    INDEX 00 44:59:51
    INDEX 01 45:01:51
  TRACK 37 AUDIO
    INDEX 00 47:40:45
    INDEX 01 47:42:45
  TRACK 38 AUDIO
    INDEX 00 47:54:58
    INDEX 01 47:56:58
  TRACK 39 AUDIO
    INDEX 00 48:08:15
    INDEX 01 48:10:15
  TRACK 40 AUDIO
    INDEX 00 48:25:03
    INDEX 01 48:27:03
  TRACK 41 AUDIO
    INDEX 00 48:44:66
    INDEX 01 48:46:66
  TRACK 42 AUDIO
    INDEX 00 49:45:72
    INDEX 01 49:47:72
  TRACK 43 AUDIO
    INDEX 00 50:21:27
    INDEX 01 50:23:27
  TRACK 44 AUDIO
    INDEX 00 50:27:56
    INDEX 01 50:29:56
  TRACK 45 AUDIO
    INDEX 00 50:43:55
    INDEX 01 50:45:55
  TRACK 46 AUDIO
    INDEX 00 50:55:53
    INDEX 01 50:57:53
  TRACK 47 AUDIO
    INDEX 00 51:10:05
    INDEX 01 51:12:05
  TRACK 48 AUDIO
    INDEX 00 51:20:38
    INDEX 01 51:22:38
  TRACK 49 AUDIO
    INDEX 00 54:05:46
    INDEX 01 54:07:46
  TRACK 50 AUDIO
    INDEX 00 55:18:71
    INDEX 01 55:20:71
  TRACK 51 AUDIO
    INDEX 00 55:28:43
    INDEX 01 55:30:43
  TRACK 52 AUDIO
    INDEX 00 56:12:51
    INDEX 01 56:14:51
  TRACK 53 AUDIO
    INDEX 00 56:24:36
    INDEX 01 56:26:36
  TRACK 54 AUDIO
    INDEX 00 57:15:42
    INDEX 01 57:17:42
  TRACK 55 AUDIO
    INDEX 00 58:28:33
    INDEX 01 58:30:33
  TRACK 56 AUDIO
    INDEX 00 60:49:25
    INDEX 01 60:51:25
  TRACK 57 AUDIO
    INDEX 00 62:37:03
    INDEX 01 62:39:03
  TRACK 58 AUDIO
    INDEX 00 63:02:48
    INDEX 01 63:04:48
  TRACK 59 AUDIO
    INDEX 00 63:26:22
    INDEX 01 63:28:22
  TRACK 60 AUDIO
    INDEX 00 63:46:01
    INDEX 01 63:48:01
  TRACK 61 AUDIO
    INDEX 00 66:34:48
    INDEX 01 66:36:48
REM LEADOUT 66:54:27
